<svg xmlns="http://www.w3.org/2000/svg" version="1.1" xmlns:xlink="http://www.w3.org/1999/xlink" xmlns:svgjs="http://svgjs.dev/svgjs" width="1000" height="1000" viewBox="0 0 1000 1000"><rect width="1000" height="1000" fill="#000000"></rect><g transform="matrix(0.7,0,0,0.7,149.57575757575756,382.34579267334925)"><svg viewBox="0 0 396 133" data-background-color="#ffffff" preserveAspectRatio="xMidYMid meet" height="335" width="1000" xmlns="http://www.w3.org/2000/svg" xmlns:xlink="http://www.w3.org/1999/xlink"><g id="tight-bounds" transform="matrix(1,0,0,1,0.2400000000000091,0.22925191660789324)"><svg viewBox="0 0 395.52 132.5414961667842" height="132.5414961667842" width="395.52"><g><svg viewBox="0 0 572.7533969551577 191.93363715373349" height="132.5414961667842" width="395.52"><g transform="matrix(1,0,0,1,177.23339695515764,71.52912604392384)"><svg viewBox="0 0 395.52 48.875385065885794" height="48.875385065885794" width="395.52"><g id="textblocktransform"><svg viewBox="0 0 395.52 48.875385065885794" height="48.875385065885794" width="395.52" id="textblock"><g><svg viewBox="0 0 395.52 48.875385065885794" height="48.875385065885794" width="395.52"><g transform="matrix(1,0,0,1,0,0)"><svg width="395.52" viewBox="4.2 -30.66 250.10000000000002 30.9" height="48.875385065885794" data-palette-color="#2a160c"><path d="M5.52 0Q4.83 0 4.52-0.32 4.2-0.63 4.2-1.29L4.2-1.29 4.2-29.08Q4.2-29.76 4.52-30.07 4.83-30.37 5.52-30.37L5.52-30.37 13.28-30.37Q16.46-30.37 18.63-29.42 20.8-28.47 21.9-26.73 23-25 23-22.71L23-22.71Q23-21.29 22.34-19.89 21.68-18.48 20.58-17.47 19.48-16.46 18.24-16.11L18.24-16.11 18.24-15.94Q18.24-16.11 19.92-15.3 21.61-14.48 22.96-12.88 24.32-11.28 24.32-8.74L24.32-8.74Q24.32 0 12.99 0L12.99 0 5.52 0ZM8.03-17.29L13.09-17.29Q14.79-17.29 16.16-17.96 17.53-18.63 18.3-19.79 19.07-20.95 19.07-22.36L19.07-22.36Q19.07-24.8 17.6-25.94 16.14-27.08 12.92-27.08L12.92-27.08 8.03-27.08 8.03-17.29ZM8.03-3.3L14.38-3.3Q17.24-3.3 18.8-4.8 20.36-6.3 20.36-8.91L20.36-8.91Q20.36-11.33 18.65-12.66 16.94-13.99 13.62-13.99L13.62-13.99 8.03-13.99 8.03-3.3ZM31.69 0.07Q29.93 0.07 29.93-0.88L29.93-0.88 29.93-29.08Q29.93-29.76 30.25-30.07 30.56-30.37 31.25-30.37L31.25-30.37 38.55-30.37Q43.75-30.37 46.37-28.54 49-26.71 49-22.71L49-22.71Q49-20 47.69-18.15 46.38-16.31 44.02-15.38L44.02-15.38 44.02-15.21Q45.29-14.77 46.1-13.51 46.92-12.26 47.92-9.79L47.92-9.79 51.32-1.22Q51.44-0.78 51.44-0.61L51.44-0.61Q51.44 0.07 49.61 0.07L49.61 0.07 49.17 0.07Q48.51 0.07 48.03-0.11 47.56-0.29 47.43-0.61L47.43-0.61 44.14-9.13Q43.5-10.79 42.65-11.72 41.79-12.65 40.62-13.01 39.45-13.38 37.67-13.38L37.67-13.38 33.76-13.38 33.76-0.88Q33.76 0.07 32.03 0.07L32.03 0.07 31.69 0.07ZM33.76-16.67L39.48-16.67Q41.01-16.67 42.29-17.41 43.58-18.14 44.32-19.37 45.07-20.61 45.07-22L45.07-22Q45.07-24.56 43.5-25.82 41.94-27.08 39.18-27.08L39.18-27.08 33.76-27.08 33.76-16.67ZM54.61 0.07Q53.63 0.07 53.19-0.11 52.75-0.29 52.75-0.66L52.75-0.66Q52.75-0.83 52.88-1.25L52.88-1.25 63.15-29.79Q63.4-30.49 64.89-30.49L64.89-30.49 66.16-30.49Q67.65-30.49 67.89-29.79L67.89-29.79 78.17-1.22Q78.29-0.95 78.29-0.66L78.29-0.66Q78.29 0.07 76.46 0.07L76.46 0.07 76.09 0.07Q74.58 0.07 74.34-0.61L74.34-0.61 71.8-7.74 59.05-7.74 56.56-0.61Q56.34 0.07 54.83 0.07L54.83 0.07 54.61 0.07ZM60.25-11.04L70.62-11.04 66.08-23.95Q65.89-24.49 65.77-25.17 65.64-25.85 65.55-26.49L65.55-26.49 65.45-26.49Q65.16-24.85 64.79-23.95L64.79-23.95 60.25-11.04ZM84.78 0.07Q83.02 0.07 83.02-0.88L83.02-0.88 83.02-29.52Q83.02-30.49 84.78-30.49L84.78-30.49 85.12-30.49Q86.86-30.49 86.86-29.52L86.86-29.52 86.86-0.88Q86.86 0.07 85.12 0.07L85.12 0.07 84.78 0.07ZM96.74 0.07Q95.82 0.07 95.4-0.16 94.99-0.39 94.99-0.88L94.99-0.88 94.99-29.52Q94.99-30.49 96.74-30.49L96.74-30.49 97.65-30.49Q98.33-30.49 98.73-30.3 99.14-30.1 99.45-29.66L99.45-29.66 113.32-8.74 114.61-6.3 114.61-29.52Q114.61-30.49 116.32-30.49L116.32-30.49 116.66-30.49Q118.37-30.49 118.37-29.52L118.37-29.52 118.37-0.88Q118.37-0.39 117.96-0.16 117.54 0.07 116.66 0.07L116.66 0.07 115.79 0.07Q115.18 0.07 114.81-0.07 114.44-0.22 114.25-0.54L114.25-0.54 99.94-22.12 98.77-24.37 98.77-0.88Q98.77 0.07 97.04 0.07L97.04 0.07 96.74 0.07ZM135 0.07Q133.48 0.07 133.26-0.61L133.26-0.61 123.33-29.17Q123.18-29.47 123.18-29.74L123.18-29.74Q123.18-30.08 123.66-30.29 124.13-30.49 125.06-30.49L125.06-30.49 125.45-30.49Q126.94-30.49 127.18-29.79L127.18-29.79 135.22-6.62 135.66-4.35 135.78-4.35 136.27-6.67 144.27-29.79Q144.54-30.49 146.03-30.49L146.03-30.49 146.28-30.49Q148.16-30.49 148.16-29.74L148.16-29.74Q148.16-29.49 148.01-29.13L148.01-29.13 138.07-0.61Q137.85 0.07 136.34 0.07L136.34 0.07 135 0.07ZM155.01 0.07Q153.26 0.07 153.26-0.88L153.26-0.88 153.26-29.52Q153.26-30.49 155.01-30.49L155.01-30.49 155.36-30.49Q157.09-30.49 157.09-29.52L157.09-29.52 157.09-0.88Q157.09 0.07 155.36 0.07L155.36 0.07 155.01 0.07ZM171.91 0.24Q169.51 0.24 167.45-0.28 165.39-0.81 164.15-1.55 162.92-2.29 162.92-2.91L162.92-2.91Q162.92-3.25 163.2-3.81 163.48-4.37 163.85-4.81 164.22-5.25 164.44-5.25L164.44-5.25Q164.63-5.25 165.29-4.86L165.29-4.86Q166.8-4.08 168.29-3.56 169.78-3.05 171.91-3.05L171.91-3.05Q173.57-3.05 174.86-3.69 176.15-4.32 176.87-5.48 177.59-6.64 177.59-8.15L177.59-8.15Q177.59-9.77 176.73-10.83 175.86-11.89 174.63-12.51 173.4-13.13 171.05-14.06L171.05-14.06Q168.51-15.04 167.04-15.88 165.56-16.72 164.52-18.33 163.48-19.95 163.48-22.61L163.48-22.61Q163.48-24.93 164.68-26.77 165.88-28.61 168.07-29.64 170.27-30.66 173.13-30.66L173.13-30.66Q174.42-30.66 176.08-30.31 177.74-29.96 178.93-29.35 180.11-28.74 180.11-28L180.11-28Q180.11-27.69 179.85-27.14 179.6-26.59 179.25-26.15 178.91-25.71 178.72-25.71L178.72-25.71Q178.5-25.71 177.84-26.07L177.84-26.07Q176.74-26.66 175.67-27.01 174.59-27.37 173.05-27.37L173.05-27.37Q170.54-27.37 168.99-26.07 167.44-24.78 167.44-22.46L167.44-22.46Q167.44-21.07 168.12-20.17 168.81-19.26 169.86-18.73 170.91-18.19 172.79-17.48L172.79-17.48Q172.91-17.46 173.35-17.29L173.35-17.29Q175.93-16.28 177.58-15.34 179.23-14.4 180.39-12.65 181.55-10.89 181.55-8.15L181.55-8.15Q181.55-5.59 180.37-3.69 179.18-1.78 177-0.77 174.81 0.24 171.91 0.24L171.91 0.24ZM188.97 0.07Q187.21 0.07 187.21-0.88L187.21-0.88 187.21-29.52Q187.21-30.49 188.97-30.49L188.97-30.49 189.31-30.49Q191.04-30.49 191.04-29.52L191.04-29.52 191.04-0.88Q191.04 0.07 189.31 0.07L189.31 0.07 188.97 0.07ZM211.11 0.24Q204.59 0.24 201.17-3.71 197.76-7.67 197.76-15.28L197.76-15.28Q197.76-22.88 201.16-26.77 204.57-30.66 211.11-30.66L211.11-30.66Q217.68-30.66 221.1-26.77 224.51-22.88 224.51-15.28L224.51-15.28Q224.51-7.67 221.1-3.71 217.68 0.24 211.11 0.24L211.11 0.24ZM211.11-3.05Q215.7-3.05 218.14-6.19 220.58-9.33 220.58-15.28L220.58-15.28Q220.58-21.24 218.15-24.3 215.72-27.37 211.11-27.37L211.11-27.37Q206.52-27.37 204.1-24.3 201.69-21.24 201.69-15.28L201.69-15.28Q201.69-9.3 204.1-6.18 206.52-3.05 211.11-3.05L211.11-3.05ZM232.67 0.07Q231.74 0.07 231.32-0.16 230.91-0.39 230.91-0.88L230.91-0.88 230.91-29.52Q230.91-30.49 232.67-30.49L232.67-30.49 233.57-30.49Q234.25-30.49 234.66-30.3 235.06-30.1 235.38-29.66L235.38-29.66 249.24-8.74 250.54-6.3 250.54-29.52Q250.54-30.49 252.25-30.49L252.25-30.49 252.59-30.49Q254.3-30.49 254.3-29.52L254.3-29.52 254.3-0.88Q254.3-0.39 253.88-0.16 253.47 0.07 252.59 0.07L252.59 0.07 251.71 0.07Q251.1 0.07 250.73-0.07 250.37-0.22 250.17-0.54L250.17-0.54 235.86-22.12 234.69-24.37 234.69-0.88Q234.69 0.07 232.96 0.07L232.96 0.07 232.67 0.07Z" opacity="1" transform="matrix(1,0,0,1,0,0)" fill="#ffffff" class="undefined-text-0" data-fill-palette-color="primary" id="text-0"></path></svg></g></svg></g></svg></g></svg></g><g><svg viewBox="0 0 165.6950915503436 191.93363715373349" height="191.93363715373349" width="165.6950915503436"><g><svg xmlns="http://www.w3.org/2000/svg" xmlns:xlink="http://www.w3.org/1999/xlink" version="1.1" x="0" y="0" viewBox="9.638 3.247 80.72399999999999 93.507" enable-background="new 0 0 100 100" xml:space="preserve" height="191.93363715373349" width="165.6950915503436" class="icon-icon-0" data-fill-palette-color="accent" id="icon-0"><g fill="#090909" data-fill-palette-color="accent"><g fill="#090909" data-fill-palette-color="accent"><polygon points="36.703,11.011 9.638,26.636 9.638,38.757 36.703,23.131 63.767,38.757 63.767,26.636   " fill="#ffffff" data-fill-palette-color="accent"></polygon></g><g fill="#090909" data-fill-palette-color="accent"><polygon points="63.298,89.092 36.233,73.467 36.233,61.348 63.298,76.973 90.362,61.348 90.362,73.467   " fill="#ffffff" data-fill-palette-color="accent"></polygon></g><g fill="#090909" data-fill-palette-color="accent"><polygon points="9.638,42.012 36.703,26.386 47.198,32.446 20.134,48.072 20.134,79.324 9.638,73.264   " fill="#ffffff" data-fill-palette-color="accent"></polygon></g><g fill="#090909" data-fill-palette-color="accent"><polygon points="77.083,18.872 50.018,3.247 39.522,9.307 66.586,24.932 66.586,56.184 77.083,50.124   " fill="#ffffff" data-fill-palette-color="accent"></polygon></g><g fill="#090909" data-fill-palette-color="accent"><polygon points="23.01,81.127 23.011,49.876 33.507,43.816 33.507,75.068 60.571,90.693 50.075,96.754   " fill="#ffffff" data-fill-palette-color="accent"></polygon></g><g fill="#090909" data-fill-palette-color="accent"><polygon points="90.362,58.092 90.362,26.84 79.866,20.78 79.866,52.031 52.802,67.658 63.298,73.719   " fill="#ffffff" data-fill-palette-color="accent"></polygon></g></g></svg></g></svg></g></svg></g><defs></defs></svg><rect width="395.52" height="132.5414961667842" fill="none" stroke="none" visibility="hidden"></rect></g></svg></g></svg>